<?xml version="1.0" encoding="utf-8"?>
<!-- Generator: Adobe Illustrator 27.3.1, SVG Export Plug-In . SVG Version: 6.00 Build 0)  -->
<svg version="1.1" id="Layer_1" xmlns="http://www.w3.org/2000/svg" xmlns:xlink="http://www.w3.org/1999/xlink" x="0px" y="0px"
	 viewBox="0 0 570.5 569.3" style="enable-background:new 0 0 570.5 569.3;" xml:space="preserve">
<symbol  id="a" viewBox="-0.1 -0.1 0.3 0.3">
	<path d="M0.1,0L0.1,0l-0.2,0c0,0,0,0,0,0h0L0.1,0C0.1,0.1,0.1,0.1,0.1,0l0,0.1c0,0,0,0-0.1,0c0,0,0,0-0.1,0c-0.1,0-0.1,0-0.1,0
		c0,0,0-0.1,0-0.1c0,0,0-0.1,0-0.1c0,0,0.1,0,0.1,0C0-0.1,0.1-0.1,0.1,0C0.1-0.1,0.1,0,0.1,0L0.1,0z M0.1,0C0.1-0.1,0.1-0.1,0.1,0
		C0-0.1,0-0.1,0.1,0C0-0.1,0-0.1,0.1,0c-0.1,0-0.1,0-0.1,0H0.1z"/>
</symbol>
<symbol  id="b" viewBox="-0.1 -0.2 0.2 0.4">
	<path d="M0-0.2L0-0.2L0-0.2L0.1,0H0v0.1v0h0h0v0.1H0c0,0-0.1,0-0.1,0c0,0,0,0,0-0.1V0h0v-0.1L0-0.2L0-0.2L0-0.2z"/>
</symbol>
<symbol  id="c" viewBox="-0.1 -0.1 0.2 0.3">
	<path d="M0.1-0.1L0.1-0.1C0.1-0.1,0.1-0.1,0.1-0.1C0-0.1,0-0.1,0.1-0.1C0,0,0,0,0,0v0.1h-0.1v-0.3H0v0C0-0.1,0-0.1,0.1-0.1
		C0-0.1,0-0.1,0.1-0.1L0.1-0.1L0.1-0.1L0.1-0.1z"/>
</symbol>
<symbol  id="d" viewBox="-0.1 -0.1 0.3 0.3">
	<path d="M0-0.1C0-0.1,0-0.1,0-0.1C-0.1-0.1-0.1,0,0-0.1C-0.1,0-0.1,0-0.1,0.1c0,0,0,0,0,0c0,0,0,0,0,0C0,0,0.1,0,0-0.1
		C0.1,0,0-0.1,0-0.1C0-0.1,0-0.1,0-0.1z M0-0.1c0.1,0,0.1,0,0.1,0c0,0,0,0.1,0,0.1c0,0,0,0.1,0,0.1c0,0-0.1,0-0.1,0c0,0-0.1,0-0.1,0
		c0,0,0-0.1,0-0.1c0,0,0-0.1,0-0.1C-0.1-0.1-0.1-0.1,0-0.1z"/>
</symbol>
<symbol  id="e" viewBox="-0.1 -0.1 0.3 0.3">
	<path d="M-0.1,0v-0.2h0.1v0L-0.1,0L-0.1,0L-0.1,0C0,0,0,0-0.1,0L-0.1,0l0.1,0c0,0,0,0,0,0c0,0,0,0,0-0.1v-0.1h0.1v0.3H0.1v0
		c0,0,0,0,0,0c0,0,0,0,0,0C-0.1,0.1-0.1,0.1-0.1,0C-0.1,0.1-0.1,0.1-0.1,0z"/>
</symbol>
<symbol  id="f" viewBox="-0.2 -0.2 0.3 0.4">
	<path d="M-0.2-0.2L-0.2-0.2L0,0l0.1-0.2h0.1L0,0.1c0,0,0,0.1,0,0.1c0,0,0,0,0,0h-0.1V0.1h0h0c0,0,0,0,0,0L-0.2-0.2z"/>
</symbol>
<symbol  id="g" viewBox="-0.1 -0.1 0.3 0.3">
	<path d="M0,0C0,0,0,0,0,0C-0.1,0-0.1,0,0,0C-0.1,0.1-0.1,0.1,0,0L0,0C0,0.1,0,0.1,0,0C0,0,0.1,0,0,0L0,0L0,0z M0.1,0v0.2H0.1v0
		c0,0,0,0,0,0c0,0,0,0,0,0c0,0-0.1,0-0.1,0c0,0,0,0,0-0.1s0-0.1,0-0.1c0,0,0.1,0,0.1,0L0.1,0L0.1,0C0.1-0.1,0-0.1,0.1,0
		C0-0.1,0-0.1,0-0.1h0c0,0,0,0,0,0v-0.1c0,0,0,0,0.1,0h0C0-0.1,0.1-0.1,0.1,0C0.1-0.1,0.1-0.1,0.1,0z"/>
</symbol>
<symbol  id="h" viewBox="-0.1 -0.2 0.3 0.4">
	<path d="M0,0.1C0,0.1,0,0.1,0,0.1C0,0.1,0.1,0.1,0,0.1C0.1,0,0,0,0,0c0,0,0,0,0,0c0,0,0,0,0,0L0,0.1L0,0.1C0,0.1,0,0.1,0,0.1z
		 M-0.1,0C0-0.1,0-0.1-0.1,0C0-0.1,0-0.1-0.1,0c0.1,0,0.1,0,0.2,0c0,0,0,0.1,0,0.1c0,0,0,0.1,0,0.1c0,0-0.1,0-0.1,0c0,0,0,0,0,0
		c0,0,0,0,0,0v0h-0.1v-0.4h0.1V0z"/>
</symbol>
<symbol  id="i" viewBox="-0.1 -0.2 0.3 0.4">
	<path d="M0.1,0v-0.2h0.1v0.4H0.1v0c0,0,0,0,0,0c0,0,0,0,0,0c0,0-0.1,0-0.1,0c0,0,0-0.1,0-0.1c0,0,0-0.1,0-0.1
		C-0.1-0.1-0.1-0.1,0.1,0C0-0.1,0-0.1,0.1,0C0-0.1,0.1-0.1,0.1,0L0.1,0z M0,0.1C0,0.1,0,0.1,0,0.1C0.1,0.1,0.1,0.1,0,0.1
		C0.1,0,0.1,0,0,0c0,0,0,0,0,0c0,0,0,0,0,0C-0.1,0-0.1,0,0,0.1C-0.1,0.1-0.1,0.1,0,0.1C0,0.1,0,0.1,0,0.1z"/>
</symbol>
<symbol  id="j" viewBox="-0.1 -0.1 0.2 0.3">
	<path d="M0.1-0.1L0.1-0.1L0.1-0.1C0.1-0.1,0.1-0.1,0.1-0.1C0-0.1,0-0.1,0-0.1c0,0,0,0,0,0c0,0,0,0,0,0.1c0,0,0,0,0.1,0h0
		c0,0,0,0,0,0v0.1c0,0,0,0,0,0c0,0,0,0,0,0c-0.1,0-0.1,0-0.1,0c0,0,0-0.1,0-0.1c0,0,0-0.1,0-0.1C-0.1-0.1,0-0.1,0.1-0.1L0.1-0.1
		C0.1-0.1,0.1-0.1,0.1-0.1z"/>
</symbol>
<symbol  id="k" viewBox="-0.1 -0.2 0.2 0.5">
	<path d="M0-0.1L0-0.1l0.1,0.3c0,0,0,0.1,0,0.1c0,0,0,0-0.1,0h0V0.2h0c0,0,0,0,0,0c0,0,0,0,0,0V-0.1z M0-0.2L0-0.2L0-0.2L0-0.2
		L0-0.2z"/>
</symbol>
<symbol  id="l" viewBox="-0.1 -0.2 0.3 0.4">
	<path d="M-0.1-0.2H0c0.1,0,0.1,0,0.1,0c0,0,0,0.1,0,0.1c0,0,0,0.1,0,0.1c0,0-0.1,0-0.1,0h-0.1v0.1h-0.1V-0.2z M-0.1-0.1L-0.1-0.1
		L-0.1-0.1L-0.1-0.1C0,0,0.1,0,0.1-0.1C0.1-0.1,0-0.1-0.1-0.1C0-0.1,0-0.1-0.1-0.1L-0.1-0.1z"/>
</symbol>
<symbol  id="m" viewBox="-0.1 -0.1 0.3 0.3">
	<path d="M0.1,0v0.2H0L0.1,0L0.1,0C0,0,0-0.1,0-0.1h0c0,0,0,0,0,0c0,0,0,0,0,0c0,0,0,0,0,0v0.1h-0.1v-0.3H0v0c0,0,0,0,0,0
		c0,0,0,0,0,0C0.1-0.1,0.1-0.1,0.1,0C0.1-0.1,0.1-0.1,0.1,0z"/>
</symbol>
<symbol  id="n" viewBox="-0.2 -0.2 0.3 0.4">
	<path d="M-0.2-0.2h0.1l0.1,0.2v-0.2h0.1v0.4H0.1l-0.1-0.2v0.2h-0.1V-0.2z"/>
</symbol>
<symbol  id="o" viewBox="-0.1 -0.2 0.3 0.4">
	<path d="M0.1,0v0.2H0L0.1,0L0.1,0C0,0,0,0,0,0h0c0,0,0,0,0,0c0,0,0,0,0,0c0,0,0,0,0,0v0.1h-0.1v-0.4H0V0c0,0,0,0,0,0c0,0,0,0,0,0
		C0.1-0.1,0.1-0.1,0.1,0C0.1,0,0.1,0,0.1,0z"/>
</symbol>
<symbol  id="p" viewBox="-0.2 -0.1 0.4 0.3">
	<path d="M0-0.1L0-0.1C0.1-0.1,0.1-0.1,0-0.1c0.1,0,0.1,0,0.2,0c0,0,0,0,0,0.1v0.2H0.1L0-0.1L0-0.1C0.1,0,0.1-0.1,0-0.1
		C0.1-0.1,0.1-0.1,0-0.1C0.1-0.1,0.1-0.1,0-0.1C0.1,0,0,0,0-0.1l0,0.2H0L0-0.1C0,0-0.1-0.1,0-0.1c-0.1,0-0.1,0-0.1,0c0,0,0,0,0,0v0
		v0.1h-0.1v-0.3h0.1v0c0,0,0,0,0,0C-0.1-0.1-0.1-0.1,0-0.1C0-0.1,0-0.1,0-0.1C0-0.1,0-0.1,0-0.1z"/>
</symbol>
<symbol  id="q" viewBox="-0.1 -0.2 0.2 0.4">
	<path d="M0.1-0.2L0.1-0.2L0.1-0.2C0-0.1,0-0.1,0.1-0.2L0.1-0.2L0-0.1h0.1V0H0v0.2h-0.1V0h0v-0.1h0v0c0,0,0-0.1,0-0.1
		C0-0.2,0-0.2,0.1-0.2L0.1-0.2z"/>
</symbol>
<symbol  id="r" viewBox="-0.2 -0.2 0.3 0.4">
	<path d="M0.2,0.1C0.1,0.2,0.1,0.2,0.2,0.1c-0.1,0-0.1,0-0.1,0c-0.1,0-0.1,0-0.1,0c0,0,0-0.1,0-0.2c0-0.1,0-0.1,0-0.1
		c0,0,0.1-0.1,0.1-0.1c0,0,0,0,0.1,0c0,0,0,0,0.1,0v0.1c0,0,0,0-0.1,0c0,0,0,0,0,0c0,0-0.1,0-0.1,0c0,0,0,0.1,0,0.1c0,0,0,0.1,0,0.1
		c0,0,0,0,0.1,0L0.2,0.1C0.1,0.1,0.1,0.1,0.2,0.1L0.2,0.1z"/>
</symbol>
<path d="M121.2,24.9l162.6,162.6L446.4,24.9c63.6-63.6,161,32.1,96.5,96.6L380.4,284.1l162.5,162.6c63.5,63.4-33.1,160-96.5,96.5
	L283.7,380.7L121.2,543.3c-63.5,63.5-160-33.1-96.6-96.5l162.6-162.6L24.6,121.6C-38.8,58,57.7-38.6,121.2,24.9L121.2,24.9z"/>
<use xlink:href="#r"  width="0.3" height="0.4" x="-0.2" y="-0.2" transform="matrix(1 0 0 1 5.0352 561.3281)" style="overflow:visible;"/>
<use xlink:href="#c"  width="0.2" height="0.3" x="-0.1" y="-0.1" transform="matrix(1 0 0 1 5.3672 561.3672)" style="overflow:visible;"/>
<use xlink:href="#a"  width="0.3" height="0.3" x="-0.1" y="-0.1" transform="matrix(1 0 0 1 5.6367 561.375)" style="overflow:visible;"/>
<use xlink:href="#g"  width="0.3" height="0.3" x="-0.1" y="-0.1" transform="matrix(1 0 0 1 5.9727 561.375)" style="overflow:visible;"/>
<use xlink:href="#b"  width="0.2" height="0.4" x="-0.1" y="-0.2" transform="matrix(1 0 0 1 6.2734 561.3281)" style="overflow:visible;"/>
<use xlink:href="#i"  width="0.3" height="0.4" x="-0.1" y="-0.2" transform="matrix(1 0 0 1 6.9023 561.3203)" style="overflow:visible;"/>
<use xlink:href="#h"  width="0.3" height="0.4" x="-0.1" y="-0.2" transform="matrix(1 0 0 1 7.4609 561.3203)" style="overflow:visible;"/>
<use xlink:href="#f"  width="0.3" height="0.4" x="-0.2" y="-0.2" transform="matrix(1 0 0 1 7.7969 561.4219)" style="overflow:visible;"/>
<use xlink:href="#e"  width="0.3" height="0.3" x="-0.1" y="-0.1" transform="matrix(1 0 0 1 8.9766 561.375)" style="overflow:visible;"/>
<use xlink:href="#q"  width="0.2" height="0.4" x="-0.1" y="-0.2" transform="matrix(1 0 0 1 4.9648 561.8164)" style="overflow:visible;"/>
<use xlink:href="#d"  width="0.3" height="0.3" x="-0.1" y="-0.1" transform="matrix(1 0 0 1 5.4961 561.8789)" style="overflow:visible;"/>
<use xlink:href="#p"  width="0.4" height="0.3" x="-0.2" y="-0.1" transform="matrix(1 0 0 1 5.9258 561.8711)" style="overflow:visible;"/>
<use xlink:href="#o"  width="0.3" height="0.4" x="-0.1" y="-0.2" transform="matrix(1 0 0 1 6.7891 561.8164)" style="overflow:visible;"/>
<use xlink:href="#n"  width="0.3" height="0.4" x="-0.2" y="-0.2" transform="matrix(1 0 0 1 7.6875 561.8242)" style="overflow:visible;"/>
<use xlink:href="#m"  width="0.3" height="0.3" x="-0.1" y="-0.1" transform="matrix(1 0 0 1 8.7891 561.8711)" style="overflow:visible;"/>
<use xlink:href="#l"  width="0.3" height="0.4" x="-0.1" y="-0.2" transform="matrix(1 0 0 1 9.332 561.8242)" style="overflow:visible;"/>
<use xlink:href="#k"  width="0.2" height="0.5" x="-0.1" y="-0.2" transform="matrix(1 0 0 1 10.1602 561.8711)" style="overflow:visible;"/>
<use xlink:href="#j"  width="0.2" height="0.3" x="-0.1" y="-0.1" transform="matrix(1 0 0 1 10.7617 561.8789)" style="overflow:visible;"/>
</svg>
