<?xml version="1.0" encoding="UTF-8"?><svg id="Layer_1" xmlns="http://www.w3.org/2000/svg" xmlns:xlink="http://www.w3.org/1999/xlink" viewBox="0 0 1083.04 1056.7"><defs><style>.cls-1{fill:none;stroke:#000;stroke-miterlimit:10;stroke-width:50px;}</style><symbol id="a" viewBox="0 0 .28 .3"><path d="m.28.16v-.03H.08s.02-.04.03-.05h.11s.04.02.06.03V.03s-.04,0-.06-.02c-.02,0-.04-.02-.06-.02C.1,0,.06.02.03.05c-.02.03-.03.07-.03.11,0,.04,0,.07.03.09.03.03.07.05.11.05.04,0,.07-.02.09-.05.03-.02.05-.05.05-.09h0Zm-.08.03s0,.03-.02.03c-.01,0-.03.02-.05.02-.01,0-.02,0-.03-.02-.01,0-.02-.01-.03-.03h.12Z"/></symbol><symbol id="b" viewBox="0 0 .22 .36"><path d="m.12.36v-.08h.09v-.06h-.09V.06h.08v-.06h-.06S.07,0,.05.02c-.01.02-.02.05-.02.08v.12h-.03v.06h.03v.08h.09Z"/></symbol><symbol id="c" viewBox="0 0 .2 .28"><path d="m.2.2h-.03s0,.02-.02.02c-.02,0-.04-.01-.05-.03-.01-.01-.02-.03-.02-.06v-.12h-.09v.28h.09v-.05s.02.03.03.03c0,0,.02.02.05.02h.03v-.08Z"/></symbol><symbol id="d" viewBox="0 0 .3 .3"><path d="m.14.23s-.04,0-.05-.02c-.01-.01-.02-.03-.02-.06s0-.05.02-.06c0-.01.02-.02.05-.02.02,0,.04,0,.05.02,0,0,.02.03.02.06s0,.05-.02.06c-.01,0-.03.02-.05.02Zm0,.06c.05,0,.09-.02.11-.05.03-.02.05-.05.05-.09,0-.04-.02-.08-.05-.11-.02-.03-.06-.05-.11-.05-.04,0-.08.02-.11.05-.02.03-.03.07-.03.11,0,.04,0,.07.03.09.03.03.07.05.11.05Z"/></symbol><symbol id="e" viewBox="0 0 .27 .3"><path d="m0,.12v.17h.08V.11s.02,0,.02-.02v-.02h.03s.04,0,.05.02c0,.02.02.04.02.06v.14h.08V.02h-.08v.05s-.04-.04-.05-.05c-.01,0-.03-.02-.05-.02C.06,0,.04.01.02.03c-.01.03-.02.06-.02.09Z"/></symbol><symbol id="f" viewBox="0 0 .31 .39"><path d="m0,.39h.08l.08-.19.06.19h.09L.19.08s-.03-.05-.05-.06c-.01,0-.03-.02-.05-.02H.03v.06h.06s.02.01.02.03l-.11.3Z"/></symbol><symbol id="g" viewBox="0 0 .27 .3"><path d="m.14.14s-.04,0-.05-.02c-.01,0-.02,0-.02-.02,0-.01,0-.02.02-.03h.03s.04,0,.05.02c0,0,.02.02.02.03v.02h-.05Zm.12.03V.02h-.08v.05s-.03-.04-.05-.05c-.01,0-.03-.02-.05-.02C.06,0,.04.01.02.03c-.01.02-.02.05-.02.08s0,.05.03.06c.02,0,.05.02.09.02h.06v.02s0,.02-.02.02c-.01,0-.03.02-.06.02h-.05s-.04,0-.05-.02v.06s.04.02.06.02h.05c.05,0,.09-.01.11-.03.02-.02.03-.05.03-.09Z"/></symbol><symbol id="h" viewBox="0 0 .3 .41"><path d="m.14.08s.04,0,.05.02c0,0,.02.03.02.06,0,.02,0,.04-.02.05-.01.02-.03.03-.05.03-.02,0-.04-.01-.05-.03v-.11s.02-.02.05-.02Zm-.05.17s.02.03.03.03c.02,0,.04.02.05.02.04,0,.07-.02.09-.05.02-.02.03-.05.03-.09,0-.04-.01-.08-.03-.11-.02-.03-.05-.05-.09-.05-.01,0-.03,0-.05.02-.01,0-.02.02-.03.05V.02h-.09v.39h.09v-.16Z"/></symbol><symbol id="i" viewBox="0 0 .28 .41"><path d="m.2.25v.16h.08V.02h-.08v.05s-.03-.04-.05-.05c-.01,0-.03-.02-.05-.02-.03,0-.06.02-.08.05-.02.03-.03.07-.03.11,0,.04,0,.07.03.09.02.03.05.05.08.05.02,0,.04,0,.05-.02.02,0,.04-.01.05-.03H.2Zm-.06-.17s.04,0,.05.02c0,0,.02.03.02.06,0,.02,0,.04-.02.05-.01.02-.03.03-.05.03-.02,0-.04-.01-.05-.03-.01-.01-.02-.03-.02-.05,0-.03,0-.05.02-.06,0-.01.02-.02.05-.02Z"/></symbol><symbol id="j" viewBox="0 0 .23 .3"><path d="m.23.28v-.06h-.03s-.03.02-.05.02c-.02,0-.04-.01-.06-.03-.01-.01-.02-.03-.02-.05,0-.02,0-.04.02-.06.02-.01.04-.02.06-.02h.05s.02.02.03.02V.03s-.03-.02-.05-.02c-.01,0-.02-.02-.03-.02C.1,0,.06.02.03.05c-.02.03-.03.07-.03.11,0,.04,0,.07.03.09.03.03.07.05.12.05h.03s.04,0,.05-.02Z"/></symbol><symbol id="k" viewBox="0 0 .16 .5"><path d="m.06.39h.09V.12s-.01-.07-.03-.09c-.02-.02-.05-.03-.08-.03h-.05v.06h.02s.03,0,.03.02c0,0,.02.02.02.05v.27Zm0,.11h.09v-.08h-.09v.08Z"/></symbol><symbol id="l" viewBox="0 0 .3 .38"><path d="m0,.38h.16c.05,0,.09-.01.11-.03.02-.02.03-.05.03-.09,0-.04-.01-.07-.03-.09-.02-.02-.06-.03-.11-.03h-.06v-.12h-.09v.38Zm.09-.08v-.09h.09s.02.02.02.05c0,.02,0,.03-.02.03-.01,0-.02.02-.03.02h-.06Z"/></symbol><symbol id="m" viewBox="0 0 .28 .28"><path d="m.28.17v-.17h-.09v.17s0,.02-.02.03h-.02s0,.02-.02.02c-.01,0-.02-.01-.03-.03-.01-.01-.02-.03-.02-.05V0h-.09v.28h.09v-.05s.02.03.03.03c.02,0,.04.02.05.02.03,0,.05-.01.08-.03.02-.02.03-.05.03-.08Z"/></symbol><symbol id="n" viewBox="0 0 .33 .38"><path d="m0,.38h.11L.23.12v.25h.09v-.38h-.11L.09.25v-.25h-.09v.38Z"/></symbol><symbol id="o" viewBox="0 0 .28 .39"><path d="m.28.17v-.17h-.09v.17s0,.02-.02.03h-.02s0,.02-.02.02c-.01,0-.02-.01-.03-.03-.01-.01-.02-.03-.02-.05V0h-.09v.39h.09v-.16s.02.03.03.03c.02,0,.04.02.05.02.03,0,.05-.01.08-.03.02-.02.03-.05.03-.08Z"/></symbol><symbol id="p" viewBox="0 0 .44 .28"><path d="m.25.23l.03.03s.04.02.06.02c.03,0,.05-.01.06-.03.02-.02.03-.05.03-.08v-.17h-.09v.16s0,.04-.02.05c0,0,0,.02-.02.02-.01,0-.02-.01-.03-.03-.01-.01-.02-.03-.02-.05v-.14h-.09v.14s0,.05-.02.06c0,0,0,.02-.02.02-.02,0-.04-.01-.05-.03v-.19h-.09v.28h.09v-.05s.02.03.03.03c0,0,.02.02.05.02.02,0,.04,0,.05-.02,0-.01.02-.02.03-.03Z"/></symbol><symbol id="q" viewBox="0 0 .2 .39"><path d="m.2.39v-.06h-.05s-.02,0-.03-.02v-.03h.08v-.06h-.08v-.22H.05v.22h-.05v.06h.05v.02s0,.05.02.06c.02.02.05.03.08.03h.06Z"/></symbol><symbol id="r" viewBox="0 0 .31 .39"><path d="m.31.05s-.04-.02-.06-.03c-.02,0-.04-.02-.06-.02-.05,0-.1.02-.14.05-.03.04-.05.09-.05.16,0,.05.02.09.05.12.04.04.09.06.14.06.02,0,.04,0,.06-.02.02,0,.04,0,.06-.02v-.08s-.04.03-.06.03c-.01,0-.03.02-.05.02-.03,0-.06-.01-.08-.03-.02-.02-.03-.05-.03-.09,0-.04,0-.07.03-.09.02-.02.05-.03.08-.03h.05s.04.02.06.03V.05Z"/></symbol></defs><path d="m378.73,276.72l162.55,162.64,162.64-162.64c63.61-63.61,161.04,32.1,96.52,96.62l-162.55,162.55,162.55,162.64c63.51,63.41-33.11,160.03-96.52,96.52l-162.64-162.55-162.55,162.55c-63.51,63.51-160.03-33.11-96.62-96.52l162.64-162.64-162.64-162.55c-63.41-63.51,33.11-160.13,96.62-96.62h0Z"/><use width=".31" height=".39" transform="translate(69.88 810.09) scale(1 -1)" xlink:href="#r"/><use width=".2" height=".28" transform="translate(70.27 810.08) scale(1 -1)" xlink:href="#c"/><use width=".28" height=".3" transform="translate(70.5 810.09) scale(1 -1)" xlink:href="#a"/><use width=".27" height=".3" transform="translate(70.84 810.09) scale(1 -1)" xlink:href="#g"/><use width=".22" height=".36" transform="translate(71.16 810.08) scale(1 -1)" xlink:href="#b"/><use width=".28" height=".41" transform="translate(71.76 810.09) scale(1 -1)" xlink:href="#i"/><use width=".3" height=".41" transform="translate(72.31 810.09) scale(1 -1)" xlink:href="#h"/><use width=".31" height=".39" transform="translate(72.64 810.19) scale(1 -1)" xlink:href="#f"/><use width=".27" height=".3" transform="translate(73.84 810.09) scale(1 -1)" xlink:href="#e"/><use width=".2" height=".39" transform="translate(69.86 810.58) scale(1 -1)" xlink:href="#q"/><use width=".3" height=".3" transform="translate(70.35 810.6) scale(1 -1)" xlink:href="#d"/><use width=".44" height=".28" transform="translate(70.71 810.58) scale(1 -1)" xlink:href="#p"/><use width=".28" height=".39" transform="translate(71.65 810.58) scale(1 -1)" xlink:href="#o"/><use width=".33" height=".38" transform="translate(72.52 810.58) scale(1 -1)" xlink:href="#n"/><use width=".28" height=".28" transform="translate(73.65 810.58) scale(1 -1)" xlink:href="#m"/><use width=".3" height=".38" transform="translate(74.18 810.58) scale(1 -1)" xlink:href="#l"/><use width=".16" height=".5" transform="translate(75.08 810.69) scale(1 -1)" xlink:href="#k"/><use width=".23" height=".3" transform="translate(75.64 810.6) scale(1 -1)" xlink:href="#j"/><circle class="cls-1" cx="541.52" cy="528.59" r="495.66"/></svg>