<?xml version="1.0" encoding="utf-8"?>
<!-- Generator: Adobe Illustrator 27.3.1, SVG Export Plug-In . SVG Version: 6.00 Build 0)  -->
<svg version="1.1" id="Layer_2_00000110446959653889498150000007209854145781291393_"
	 xmlns="http://www.w3.org/2000/svg" xmlns:xlink="http://www.w3.org/1999/xlink" x="0px" y="0px" viewBox="0 0 884 871.2"
	 style="enable-background:new 0 0 884 871.2;" xml:space="preserve">
<style type="text/css">
	.st0{opacity:0.6;fill:#ECD0FF;stroke:#ECD0FF;stroke-miterlimit:10;}
	.st1{fill:#772A36;stroke:#772A36;stroke-miterlimit:10;}
	.st2{fill:#C38E70;stroke:#C38E70;stroke-width:4;stroke-miterlimit:10;}
	.st3{fill:#C38E70;}
	.st4{fill:#B07D62;}
	.st5{fill:#CD9777;}
	.st6{fill:none;stroke:#1D1D1B;stroke-width:5;stroke-linecap:round;stroke-miterlimit:10;}
	.st7{fill:#1D1D1B;stroke:#1D1D1B;stroke-width:5;stroke-linecap:round;stroke-miterlimit:10;}
	.st8{fill:#F6F6F6;stroke:#F6F6F6;stroke-width:5;stroke-linecap:round;stroke-miterlimit:10;}
	.st9{fill:#E2707F;}
	.st10{fill:#AE6353;}
	.st11{fill:#EFCA54;stroke:#EFCA54;stroke-width:5;stroke-linecap:round;stroke-miterlimit:10;}
	.st12{fill:#8A5A44;stroke:#8A5A44;stroke-width:4;stroke-miterlimit:10;}
	.st13{fill:#F6F6F6;stroke:#F6F6F6;stroke-width:4;stroke-miterlimit:10;}
	.st14{fill:#B07D62;stroke:#B07D62;stroke-width:4;stroke-miterlimit:10;}
</style>
<ellipse class="st0" cx="442.9" cy="440.4" rx="436.7" ry="430.8"/>
<path class="st1" d="M106.5,552.9c-19.5,31.2-19.9,45.8-18.1,55.6c4.9,25.6,29.8,40.6,40.2,46.6c55.3,32.2,114.8,15.2,200.8,7.8
	c118.7-10.2,121,12.3,320,3.9c3.8-0.2,41.9,5.6,88.1-5.2c17.2-4,25.9-6.2,33.7-13c27-23.4,25.9-81.8,2.6-121.8
	c-28.8-49.4-73-39.3-88.1-81.8c-14.1-39.6,20.3-60,3.9-99.6c-12.7-30.6-37.9-29.7-69.5-68.1C590.1,240.9,582,203,582.1,203l0,0
	c0,0,0.6-26.6-13-50.5C529.1,82,379,70,320.4,127.8c-30.4,29.9-38.9,55.7-38.9,55.7c0,0-1.1,33.5-11.7,55.7
	c-10.5,22.2-21.9,15.2-60.9,53.1c-22.5,21.9-33,38.2-35,56.2c-1,9.6,0.3,18.1,0.3,18.1c2.4,14.8,8.7,21,15.1,36.5
	c5.4,13,7.4,24.3,7.9,27.9C201.7,465.8,149,484.7,106.5,552.9L106.5,552.9z"/>
<path class="st2" d="M505.3,408.4c-0.8,6.7-1.6,22.5,7,39.5c2.4,4.8,10.5,20.4,27.9,29c9.2,4.6,17.3,5.4,20.9,5.8
	c5.6,0.6,61.6,6.7,94,16.2c15.6,4.6,57.6,17,74.3,52.2c5.7,12.1,6.5,22.8,7,30.2c3.5,55.2,4.4,111.6,4.6,145.1L120,725.3
	c-3.1-27.3,1.2-58,2.3-117.2c0.5-25.4,24.8-70.8,66.2-96.3c12.4-7.6,25-12.3,26.7-12.8c18.3-4.8,39.9-4.3,67.3-8.1
	c17.8-2.5,58.3-8.1,76.6-37.1c8.9-14.1,9.8-29.5,9.3-39.5L505.3,408.4L505.3,408.4z"/>
<path class="st3" d="M543.6,336.2c5.4-0.5,13.7-1.8,22.4-5.9c2.7-1.2,24-11.7,28.2-32.8c0.5-2.6,5.2-26.3-12-34.2
	c-12.6-5.8-28,0.9-30,1.8L543.6,336.2L543.6,336.2z"/>
<path class="st4" d="M358,408.8c4,7,17.1,27.6,43.8,38.7c7.2,3,30,12.1,57,4.1c32.5-9.6,60.7-40.9,55-56c-5-13.4-39.1-20.8-157.9,0"
	/>
<path class="st5" d="M508.5,177.8c10.5,19.5,51.2,18.3,43.5,104.7c-1.6,17.7-9.9,97.8-49.2,129.8c-23.5,19.1-44,18.8-73,18.5
	c-47.6-0.5-91-19.9-110.9-154.4c-9.9-67.1,39-81.4,49.7-98.6L508.5,177.8L508.5,177.8z"/>
<path class="st6" d="M435.2,285.3c-2,5.2,1.5,9.2,1.1,18.1c-0.3,6.7-6,15.4-3,17.3c3.5,2.3,13.4,5,20-1.4"/>
<path class="st6" d="M466,269.1c2.4-5.9,8.2-15.3,27.1-15.3c16,0,22.8,7.6,25.7,15.3"/>
<path class="st6" d="M453.3,246.3c13.2-11.9,29.5-14,42.2-13.8c7.5,0.1,23.3,4.1,33.9,13.8"/>
<path class="st6" d="M364.2,269.1c2.4-5.9,8.2-15.3,27.1-15.3c16,0,22.8,7.6,25.7,15.3"/>
<path class="st6" d="M349.8,246.3c13.2-11.9,29.5-14,42.2-13.8c7.5,0.1,23.3,4.1,33.9,13.8"/>
<circle class="st7" cx="391.7" cy="266.3" r="11.2"/>
<circle class="st7" cx="492.4" cy="269.1" r="11.2"/>
<path class="st8" d="M386.2,188.2c-12.3,3.2-29.8,10.6-38.5,18c-0.2,0.1-0.4,0.3-0.6,0.5c-13.8,12.2-23,69-28.1,69.6
	c-4.4,0.5-11.8-20.3-12.2-29.8c-0.9-22.3,3.6-31.3,10.9-39c34.3-36.2,22.8-45.7,41.6-57.1c44.8-27.3,94.1,5.6,131.5,0.1
	c24-3.5,38.7,20.3,68.4,61.4c6.3,8.7,3.1,46.2-6.3,59.4c-4.4,6.2-9.3-23.4-11.4-32c-0.8-3.1-5.1-15.1-11.4-23.9
	c-4.7-6.6-10.6-16.7-32.3-24.2C497.7,191.3,458.8,169.3,386.2,188.2L386.2,188.2z"/>
<path class="st9" d="M461.9,285.2c1.8-2,6.9,3.9,17.5,4.4c15,0.7,19.9-10.1,35.1-8.8c3.2,0.3,11,0.9,14,6.1
	c3.9,6.7-1.7,17.9-8.8,23.7c-10.8,8.8-26.6,6.1-36,1.8C468.3,305.2,459.2,288.3,461.9,285.2L461.9,285.2z"/>
<path class="st9" d="M418.6,285.2c-1.8-2-6.9,3.9-17.5,4.4c-15,0.7-19.9-10.1-35.1-8.8c-3.2,0.3-11,0.9-14,6.1
	c-3.9,6.7,1.7,17.9,8.8,23.7c10.8,8.8,26.6,6.1,36,1.8C412.2,305.2,421.3,288.3,418.6,285.2L418.6,285.2z"/>
<path class="st10" d="M430.9,345.2c0.4-0.5,4.1-5.2,10.2-5.3c0.4,0,4.8,0,8.2,2.9c6.9,5.9,7.4,21.5-1,26.6c-4,2.4-9.3,2.1-13.1,0
	C427.1,364.8,425.6,351.9,430.9,345.2z"/>
<path class="st6" d="M400.1,345.3c6.7,3.9,22.8,12,44.7,11.5c19.6-0.5,34.1-7.6,40.8-11.5"/>
<path class="st11" d="M155.6,207.5c-10.1,1.1,0.4,17.2-19.9,40c-15.4,17.2-34.2,16.1-33.7,24.2c0.7,11.2,18,11.2,32.7,28.8
	c18,21.5,12.8,46.2,20.9,47.1c7.4,0.9-0.6-30.1,20.5-54.9c15.9-18.7,36.8-10.8,37.2-22.3c0.2-5-13.2-0.3-33.6-22.9
	C152.1,217.2,159.5,207.1,155.6,207.5L155.6,207.5z"/>
<path class="st11" d="M741.9,342.2c-5.1,0.5,0.2,8.6-10,20c-7.7,8.6-17.1,8.1-16.9,12.1c0.3,5.6,9,5.6,16.4,14.4
	c9,10.8,6.4,23.1,10.5,23.6c3.7,0.4-0.3-15.1,10.2-27.5c8-9.3,18.4-5.4,18.6-11.2c0.1-2.5-6.6-0.1-16.8-11.4
	C740.2,347,743.8,342,741.9,342.2L741.9,342.2z"/>
<path class="st11" d="M629.9,106.6c-6.3,0.7,0.2,10.6-12.3,24.8c-9.5,10.7-21.2,10-20.9,14.9c0.4,6.9,11.1,6.9,20.3,17.8
	c11.2,13.3,7.9,28.6,13,29.2c4.6,0.6-0.4-18.7,12.7-34c9.8-11.6,22.8-6.7,23-13.8c0.1-3.1-8.1-0.2-20.8-14.1
	C627.7,112.6,632.3,106.4,629.9,106.6L629.9,106.6z"/>
<path class="st12" d="M358.1,394.5c1.6,0.8,19,9.1,22.2,27.6c2.8,16.3-6.5,33.5-23.1,41.4l-49.7,203.6l-50-12.7L358.1,394.5
	L358.1,394.5z"/>
<path class="st13" d="M240.8,762.1c-4.2-13.1,3.8-15.5,9.1-88.9c2.2-31.4,2-47.5,13.1-54.6c11.2-7,23.1,1.8,51.5,9.1
	c36.6,9.4,67.1,7.5,90.9,6.1c41.4-2.5,43-11.2,80.8-10.1c24.4,0.7,36.6,1,51.5,4c19.3,3.9,32.6,9.5,49.5,4
	c12.1-3.9,12.8-9.2,18.2-8.1c14.5,3,18,42.6,24.2,118.2c1.1,13.8,1.7,20.7,1,23.2C609.9,842.6,266.9,844.2,240.8,762.1L240.8,762.1z
	"/>
<path class="st14" d="M157.5,722.6c1.9-5.7,149-305.6,149-305.6c-8.3-8.7-19.2-21.9-28.5-39.9c-6.6-12.8-14.6-32.2-11.4-34.2
	c1.5-0.9,6.6,1.6,25.6,25.6c-0.4-4.8-1-12.4-1.9-21.7c-6.4-69.6-12-95.4-2.9-99.8c2.5-1.2,7-1.3,16.1,5.7L371,389.5
	c2.2,2.9,3.7,5.8,4.7,8.5c10.6,28.8-25.3,63.4-28.5,66.4l-70.2,261.9L157.5,722.6L157.5,722.6z"/>
</svg>
