<?xml version="1.0" encoding="UTF-8"?><svg id="Layer_2" xmlns="http://www.w3.org/2000/svg" viewBox="0 0 884.05 871.15"><defs><style>.cls-1{stroke-width:17px;}.cls-1,.cls-2,.cls-3,.cls-4,.cls-5,.cls-6,.cls-7,.cls-8,.cls-9,.cls-10,.cls-11,.cls-12{stroke-miterlimit:10;}.cls-1,.cls-2,.cls-8,.cls-9,.cls-10,.cls-12{stroke-linecap:round;}.cls-1,.cls-2,.cls-9{stroke:#662483;}.cls-1,.cls-2,.cls-9,.cls-12{fill:none;}.cls-13,.cls-3{fill:#c38e70;}.cls-14,.cls-4{fill:#b07d62;}.cls-15{fill:#cd9777;}.cls-16{fill:#df0032;}.cls-2{stroke-width:16px;}.cls-3{stroke:#c38e70;}.cls-3,.cls-4,.cls-5,.cls-6{stroke-width:4px;}.cls-4{stroke:#b07d62;}.cls-5{fill:#8a5a44;stroke:#8a5a44;}.cls-6,.cls-10{fill:#f6f6f6;stroke:#f6f6f6;}.cls-7{fill:#772a36;stroke:#772a36;}.cls-8{fill:#1d1d1b;}.cls-8,.cls-10,.cls-12{stroke-width:5px;}.cls-8,.cls-12{stroke:#1d1d1b;}.cls-9{stroke-width:13px;}.cls-11{fill:#ecd0ff;isolation:isolate;opacity:.6;stroke:#ecd0ff;}</style></defs><ellipse class="cls-11" cx="442.85" cy="435.57" rx="436.7" ry="430.8"/><path class="cls-7" d="m106.53,552.91c-19.47,31.25-19.94,45.78-18.07,55.6,4.88,25.62,29.77,40.6,40.16,46.64,55.34,32.18,114.82,15.17,200.82,7.77,118.71-10.2,120.95,12.27,320.02,3.89,3.82-.16,41.94,5.62,88.1-5.18,17.17-4.02,25.9-6.19,33.69-12.96,26.99-23.44,25.87-81.8,2.59-121.79-28.75-49.39-72.98-39.3-88.1-81.79-14.11-39.64,20.28-60.02,3.89-99.6-12.66-30.57-37.91-29.7-69.48-68.06-30.07-36.53-38.11-74.43-38.06-74.46,0,0,0,0,0,0,0-.04.64-26.59-12.96-50.53-40.04-70.47-190.14-82.4-248.76-24.62-30.35,29.92-38.87,55.7-38.87,55.71,0,0-1.14,33.52-11.66,55.71-10.51,22.17-21.9,15.16-60.89,53.12-22.54,21.94-33.02,38.19-34.98,56.17-1.04,9.56.32,18.1.32,18.1,2.36,14.76,8.72,21.04,15.12,36.5,5.38,13,7.42,24.33,7.88,27.92,4.42,34.73-48.26,53.62-90.77,121.84Z"/><path class="cls-3" d="m505.31,408.39c-.75,6.7-1.57,22.54,6.96,39.46,2.43,4.81,10.53,20.36,27.86,29.02,9.21,4.6,17.35,5.43,20.89,5.8,5.61.6,61.56,6.66,94.01,16.25,15.56,4.6,57.61,17.02,74.28,52.23,5.73,12.11,6.5,22.75,6.96,30.18,3.45,55.25,4.37,111.61,4.64,145.08l-620.94-1.14c-3.06-27.35,1.15-58.05,2.31-117.24.5-25.36,24.79-70.79,66.16-96.33,12.37-7.64,25.03-12.33,26.69-12.77,18.28-4.84,39.88-4.3,67.32-8.12,17.75-2.47,58.33-8.12,76.6-37.14,8.9-14.13,9.77-29.47,9.29-39.46l136.96-5.8Z"/><path class="cls-13" d="m543.56,336.16c5.37-.49,13.68-1.82,22.37-5.88,2.65-1.24,24.01-11.74,28.19-32.81.52-2.61,5.21-26.28-12.04-34.17-12.57-5.75-27.98.9-29.98,1.79l-8.55,71.07Z"/><path class="cls-14" d="m358.05,408.77c4.04,6.99,17.15,27.59,43.81,38.71,7.18,3,29.96,12.11,57.05,4.08,32.53-9.65,60.73-40.91,55.02-56.03-5.05-13.36-39.11-20.78-157.92,0"/><path class="cls-15" d="m508.5,177.8c10.55,19.54,51.19,18.34,43.55,104.68-1.57,17.72-9.93,97.8-49.19,129.78-23.5,19.14-44.03,18.75-72.96,18.47-47.63-.45-91.03-19.88-110.9-154.36-9.91-67.09,39.01-81.37,49.67-98.57h139.83Z"/><path class="cls-12" d="m435.18,285.32c-1.97,5.25,1.45,9.18,1.06,18.09-.3,6.72-5.95,15.39-2.96,17.32,3.52,2.27,13.39,4.95,20.01-1.35"/><path class="cls-12" d="m465.96,269.1c2.42-5.92,8.23-15.31,27.12-15.31,15.98,0,22.76,7.65,25.67,15.31"/><path class="cls-12" d="m364.17,269.1c2.42-5.92,8.23-15.31,27.12-15.31,15.98,0,22.76,7.65,25.67,15.31"/><path class="cls-12" d="m349.75,246.3c13.22-11.93,16.46-23.61,40.81-23.61s28.5,13.37,35.31,23.61"/><circle class="cls-8" cx="391.66" cy="266.33" r="11.25"/><circle class="cls-8" cx="492.36" cy="269.1" r="11.25"/><path class="cls-10" d="m386.16,188.21c-12.28,3.19-29.82,10.62-38.46,18.02-.17.14-.35.3-.59.51-13.8,12.22-23.04,69.02-28.12,69.63-4.43.53-11.81-20.27-12.2-29.81-.91-22.33,3.58-31.32,10.88-39.04,34.29-36.24,22.82-45.68,41.58-57.12,44.77-27.32,94.11,5.6,131.45.12,23.96-3.52,38.71,20.28,68.4,61.44,6.28,8.71,3.08,46.24-6.31,59.41-4.39,6.16-9.28-23.41-11.39-32-.77-3.13-5.13-15.11-11.44-23.85-4.74-6.56-10.56-16.74-32.28-24.25,0,0-38.86-21.92-111.53-3.06Z"/><path d="m430.87,345.16c.43-.55,4.13-5.21,10.16-5.32.41,0,4.8-.03,8.22,2.9,6.86,5.87,7.38,21.48-.97,26.6-3.95,2.42-9.26,2.11-13.06,0-8.15-4.52-9.58-17.4-4.35-24.18Z"/><path class="cls-12" d="m454.3,246.3c13.22-11.93,16.46-23.61,40.81-23.61s28.5,13.37,35.31,23.61"/><circle class="cls-16" cx="354.11" cy="302.93" r="4.36"/><circle class="cls-16" cx="394.19" cy="345.81" r="2.52"/><path class="cls-5" d="m365.92,401.46c1.64.75,18.99,9.08,22.21,27.6,2.83,16.29-6.46,33.52-23.14,41.44l-49.74,203.56-50.04-12.73,100.71-259.88Z"/><path class="cls-5" d="m514.01,408.39c-1.64.75-18.99,9.08-22.21,27.6-2.83,16.29,6.46,33.52,23.14,41.44l49.74,203.56,50.04-12.73-100.71-259.88Z"/><path class="cls-13" d="m332.45,336.16c-5.37-.49-13.68-1.82-22.37-5.88-2.65-1.24-24.01-11.74-28.19-32.81-.52-2.61-5.21-26.28,12.04-34.17,12.57-5.75,27.98.9,29.98,1.79l8.55,71.07Z"/><circle class="cls-16" cx="398.55" cy="397.1" r="4.36"/><circle class="cls-16" cx="481.11" cy="302.93" r="4.36"/><circle class="cls-16" cx="476.05" cy="365.99" r="3.67"/><circle class="cls-16" cx="476.74" cy="405.13" r="3.67"/><circle class="cls-16" cx="434.52" cy="204.23" r="3.67"/><circle class="cls-16" cx="521.07" cy="318.26" r="2.32"/><path class="cls-2" d="m203.99,120.67c-22.89-5.22-46.76,4.93-59.61,25.26-13.08,20.69-21.75,55-9.12,73.6,13.64,20.09,49.86,22.42,73.12,13.64,16.82-6.34,37.26-24.64,35.03-49.3-2.14-23.69-23.95-39.37-44.24-40.18-14.96-.59-37.71,6.55-43.5,26.93-4.61,16.22,2.52,37.31,18.87,43.44,19.18,7.19,42.91-9.26,42.47-21.99-.31-9-12.75-17.3-28.43-21.41"/><path class="cls-1" d="m763.99,264.79c12.31-25.54,5.99-56.72-15.69-77.85-22.06-21.5-54.61-27.34-80.72-17.86-28.2,10.25-47.76,37.94-42.97,68,3.46,21.73,20.68,51.25,51.56,55.82,29.67,4.39,54.55-16.8,60.77-40.55,4.59-17.51,1.66-46.49-21.88-59.29-18.74-10.19-46.5-7.93-58.25,9.6-13.78,20.57.33,53.43,16.08,56.63,11.15,2.27,24.55-10.01,33.64-27.34"/><path class="cls-9" d="m98.54,398.44c-7.59,15.34-5.95,40.51,5.66,52.79,11.81,12.49,37.09,11.77,51.99,5.79,16.1-6.46,21.74-26.12,19.85-43.93-1.37-12.87-10.25-30.19-27.46-32.5-16.53-2.22-31.06,10.69-35.18,24.89-3.04,10.47-2.16,27.65,10.71,34.96,10.25,5.81,25.89,4.11,32.94-6.47,8.28-12.4,1.23-31.75-7.53-33.45-6.2-1.2-14.04,6.27-19.6,16.69"/><path class="cls-6" d="m240.77,762.14c-4.17-13.11,3.84-15.49,9.09-88.91,2.24-31.36,1.97-47.52,13.14-54.56,11.18-7.05,23.08,1.81,51.53,9.09,36.64,9.38,67.06,7.52,90.94,6.06,41.4-2.53,42.97-11.15,80.83-10.1,24.38.67,36.57,1.01,51.53,4.04,19.35,3.92,32.58,9.51,49.51,4.04,12.12-3.91,12.8-9.18,18.19-8.08,14.46,2.95,18.02,42.61,24.25,118.22,1.14,13.78,1.69,20.72,1.01,23.24-20.9,77.41-363.9,79.05-390.01-3.03Z"/><path class="cls-4" d="m711.86,745.15c-1.9-5.69-148.98-305.56-148.99-305.56,8.32-8.74,19.18-21.9,28.47-39.86,6.61-12.77,14.6-32.2,11.39-34.16-1.54-.94-6.63,1.57-25.62,25.62.4-4.79,1.04-12.39,1.9-21.7,6.41-69.59,11.97-95.36,2.85-99.77-2.47-1.19-7.05-1.31-16.13,5.69l-67.38,136.65c-2.22,2.89-3.73,5.78-4.74,8.54-10.59,28.8,25.28,63.42,28.47,66.43l70.22,261.91,119.57-3.8Z"/><path class="cls-4" d="m163.27,737.5c1.9-5.69,148.98-305.56,148.99-305.56-8.32-8.74-19.18-21.9-28.47-39.86-6.61-12.77-14.6-32.2-11.39-34.16,1.54-.94,6.63,1.57,25.62,25.62-.4-4.79-1.04-12.39-1.9-21.7-6.41-69.59-11.97-95.36-2.85-99.77,2.47-1.19,7.05-1.31,16.13,5.69l67.38,136.65c2.22,2.89,3.73,5.78,4.74,8.54,10.59,28.8-25.28,63.42-28.47,66.43l-70.22,261.91-119.57-3.8Z"/></svg>